<svg xmlns="http://www.w3.org/2000/svg" width="100" height="100" viewBox="0 0 100 100">
  <g transform="matrix(1.3333333,0,0,-1.3333333,0,133.33333)">
    <g transform="scale(0.1)">
      <path d="m 192.99894,538.20319 c 33.5699,-24.754 61.7459,-41.879 84.4999,-51.281 22.754,-9.445 46.38697,-14.148 70.86297,-14.148 13.2,0 23.551,2.687 31.067,8.007 7.523,5.325 11.281,11.895 11.281,19.758 0,15.723 -11.598,26.387 -34.816,32.016 l -69.67997,16.488 c -40.805,9.098 -73.6876,29.277 -98.6368,60.492 -24.9531,31.25 -37.4258,67.871 -37.4258,109.93 0,44.891 11.625,85.023 34.8594,120.312 23.2265,35.317 55.3792,62.84 96.5002,82.633 41.12897,19.774 87.42197,29.637 138.88297,29.637 38.617,0 72.5,-5.016 101.679,-15.039 29.215,-10.059 64.196,-28.27 105.004,-54.617 l -69.676,-156.317 c -40.812,33.575 -80.328,50.391 -118.644,50.391 -14.754,0 -27.488,-3.449 -38.141,-10.371 -10.687,-6.914 -16.011,-15.379 -16.011,-25.438 0,-6.886 5.043,-12.921 15.078,-18.097 10.023,-5.176 28.234,-11.395 54.636,-18.637 43.911,-10.66 73.481,-19.187 88.727,-25.637 15.199,-6.441 28.93,-16.875 41.184,-31.312 33.593,-30.113 50.367,-72.184 50.367,-126.199 0,-34.801 -6.43,-66.664 -19.274,-95.567 -12.886,-28.867 -31.418,-53.508 -55.57,-73.918 -23.859,-20.683 -52.254,-36.406 -85.23,-47.051 -32.942,-11.296 -69.348,-16.961 -109.204,-16.961 -42.371,0 -81.29297,5.176 -116.77697,15.567 -35.7656,9.715 -80.1797,28.379 -133.207,55.984 l 77.6641,179.375" style="fill:#3365b0;"/>
    </g>
  </g>
</svg>
